<svg width="374" height="108" viewBox="0 0 374 108" fill="none" xmlns="http://www.w3.org/2000/svg">
<path d="M129.371 56.523C131.299 57.409 132.908 58.875 133.976 60.718C135.096 62.666 135.667 64.884 135.629 67.134C135.659 68.812 135.323 70.477 134.645 72.011C133.967 73.545 132.964 74.911 131.707 76.013C129.077 78.418 125.626 79.706 122.076 79.609H104.005V35.212H121.635C125.028 35.077 128.342 36.261 130.891 38.52C132.052 39.526 132.978 40.778 133.602 42.186C134.227 43.595 134.535 45.125 134.505 46.667C134.503 48.618 134.026 50.538 133.117 52.261C132.27 53.994 130.976 55.466 129.371 56.523ZM125.602 51.839C126.14 51.299 126.566 50.657 126.858 49.95C127.149 49.244 127.298 48.486 127.298 47.721C127.298 46.956 127.149 46.199 126.858 45.492C126.566 44.785 126.14 44.144 125.602 43.603C125.028 43.06 124.352 42.637 123.615 42.359C122.877 42.081 122.092 41.953 121.305 41.983H111.123V53.504H121.305C122.095 53.532 122.883 53.398 123.622 53.112C124.36 52.826 125.034 52.393 125.602 51.839ZM121.679 72.617C123.427 72.686 125.13 72.056 126.417 70.863C127.018 70.296 127.494 69.607 127.813 68.842C128.132 68.077 128.287 67.253 128.269 66.423C128.29 65.591 128.134 64.765 127.811 63.999C127.487 63.233 127.005 62.546 126.395 61.984C125.117 60.788 123.422 60.15 121.679 60.208H111.123V72.705L121.679 72.617Z" fill="#437BA0"/>
<path d="M164.962 76.258C161.845 78.952 157.874 80.433 153.767 80.433C149.659 80.433 145.688 78.952 142.571 76.258C141.141 74.804 140.026 73.067 139.297 71.156C138.569 69.245 138.243 67.203 138.34 65.158V45.402H145.304V64.16C145.145 66.686 145.931 69.181 147.508 71.152C149.158 72.792 151.382 73.712 153.7 73.712C156.019 73.712 158.243 72.792 159.893 71.152C161.464 69.178 162.25 66.685 162.097 64.16V45.424H169.061V65.158C169.175 67.193 168.87 69.23 168.165 71.14C167.459 73.05 166.369 74.793 164.962 76.258Z" fill="#437BA0"/>
<path d="M241.874 45.424H246.502V75.125C246.629 77.466 246.296 79.808 245.521 82.018C244.745 84.228 243.543 86.261 241.984 88.001C240.346 89.598 238.399 90.838 236.265 91.644C234.13 92.45 231.853 92.804 229.577 92.684C225.692 92.815 221.868 91.687 218.668 89.466C215.729 87.333 213.699 84.162 212.982 80.586H219.946C220.573 82.409 221.855 83.929 223.538 84.848C225.354 85.897 227.417 86.434 229.51 86.402C230.878 86.478 232.245 86.26 233.522 85.763C234.799 85.265 235.957 84.5 236.918 83.517C237.879 82.535 238.621 81.357 239.095 80.064C239.57 78.77 239.766 77.389 239.67 76.013V74.437C236.556 77.158 232.552 78.621 228.431 78.544C225.455 78.591 222.523 77.824 219.946 76.324C217.418 74.873 215.33 72.755 213.908 70.197C212.457 67.562 211.695 64.598 211.695 61.584C211.695 58.571 212.457 55.607 213.908 52.971C215.329 50.402 217.416 48.269 219.946 46.8C222.53 45.3 225.47 44.533 228.453 44.58C230.766 44.556 233.06 45.008 235.194 45.908C237.327 46.809 239.256 48.14 240.86 49.819L241.874 45.424ZM221.687 69.11C223.415 70.936 225.721 72.099 228.207 72.399C230.694 72.699 233.207 72.117 235.314 70.753C237.422 69.389 238.991 67.329 239.754 64.925C240.516 62.522 240.424 59.926 239.492 57.584C238.561 55.242 236.849 53.3 234.65 52.092C232.451 50.884 229.903 50.485 227.444 50.963C224.985 51.442 222.768 52.768 221.174 54.715C219.581 56.661 218.71 59.106 218.712 61.629C218.677 63.014 218.922 64.392 219.434 65.678C219.946 66.964 220.712 68.132 221.687 69.11Z" fill="#437BA0"/>
<path d="M201.324 34.08H208.288V80.475H202.999L202.117 76.613C200.533 78.161 198.66 79.376 196.605 80.188C194.551 80.999 192.357 81.391 190.15 81.341C187.811 81.418 185.482 81.006 183.308 80.131C181.135 79.256 179.165 77.937 177.523 76.257C174.315 72.766 172.533 68.184 172.533 63.427C172.533 58.669 174.315 54.087 177.523 50.596C180.687 47.537 184.846 45.739 189.227 45.535C193.608 45.331 197.914 46.735 201.346 49.486L201.324 34.08ZM182.768 71.418C183.795 72.473 185.029 73.302 186.391 73.853C187.752 74.403 189.213 74.662 190.679 74.615C192.141 74.615 193.588 74.325 194.938 73.761C196.289 73.198 197.515 72.372 198.549 71.331C199.582 70.29 200.402 69.054 200.961 67.694C201.521 66.334 201.809 64.877 201.809 63.404C201.809 61.932 201.521 60.475 200.961 59.114C200.402 57.754 199.582 56.519 198.549 55.478C197.515 54.437 196.289 53.611 194.938 53.048C193.588 52.484 192.141 52.194 190.679 52.194C189.213 52.146 187.752 52.406 186.391 52.956C185.029 53.506 183.795 54.335 182.768 55.391C180.757 57.568 179.639 60.431 179.639 63.404C179.639 66.378 180.757 69.241 182.768 71.418Z" fill="#437BA0"/>
<path d="M252.673 79.61V33.193H259.725V79.61H252.673Z" fill="#437BA0"/>
<path d="M282.16 73.239H286.039V79.61H280.838C279.225 79.702 277.611 79.46 276.094 78.898C274.578 78.337 273.192 77.469 272.023 76.346C270.92 75.161 270.067 73.764 269.514 72.238C268.961 70.712 268.72 69.089 268.805 67.467V51.462H262.723V50.086L274.535 37.455H275.725V45.424H285.818V51.462H275.813V66.868C275.718 67.73 275.817 68.602 276.103 69.42C276.389 70.238 276.854 70.981 277.463 71.593C278.073 72.205 278.812 72.671 279.625 72.956C280.438 73.241 281.305 73.337 282.16 73.239Z" fill="#437BA0"/>
<path d="M308.76 44.713C311.071 44.638 313.372 45.049 315.516 45.921C317.66 46.792 319.6 48.105 321.212 49.775C322.837 51.458 324.11 53.454 324.954 55.643C325.798 57.832 326.197 60.169 326.126 62.516C326.171 65.682 325.412 68.807 323.922 71.596C322.495 74.27 320.349 76.486 317.73 77.989C314.999 79.525 311.909 80.292 308.782 80.209C306.14 80.231 303.526 79.654 301.135 78.522C298.851 77.492 296.826 75.959 295.207 74.037V91.796H290.932V45.424H293.907L294.81 51.573C296.394 49.44 298.456 47.713 300.827 46.534C303.296 45.317 306.012 44.694 308.76 44.713ZM308.452 76.257C310.228 76.315 311.997 76.002 313.646 75.337C315.296 74.672 316.792 73.67 318.038 72.395C320.474 69.734 321.827 66.247 321.827 62.627C321.827 59.008 320.474 55.521 318.038 52.86C316.792 51.585 315.296 50.583 313.646 49.918C311.997 49.253 310.228 48.94 308.452 48.998C306.675 48.952 304.908 49.273 303.26 49.941C301.611 50.609 300.116 51.61 298.865 52.882C296.405 55.517 295.034 58.999 295.034 62.616C295.034 66.234 296.405 69.715 298.865 72.35C300.111 73.63 301.606 74.637 303.255 75.309C304.904 75.981 306.673 76.304 308.452 76.257Z" fill="#437BA0"/>
<path d="M330.577 38.964V33.659H335.448V38.964H330.577ZM330.886 79.609V45.424H335.139V79.609H330.886Z" fill="#437BA0"/>
<path d="M373.992 62.539C374.003 62.709 374.003 62.879 373.992 63.049C374.003 63.242 374.003 63.434 373.992 63.626C373.983 63.789 373.983 63.952 373.992 64.115H344.087C344.297 67.431 345.764 70.539 348.186 72.794C350.583 75.014 353.747 76.201 357.001 76.102C359.379 76.143 361.724 75.537 363.789 74.348C365.781 73.164 367.412 71.451 368.505 69.398H373.023C371.702 72.657 369.475 75.463 366.61 77.478C363.768 79.386 360.416 80.377 357.001 80.32C354.662 80.329 352.346 79.861 350.191 78.943C348.138 78.096 346.278 76.835 344.726 75.236C343.172 73.614 341.951 71.697 341.134 69.598C340.247 67.352 339.798 64.955 339.812 62.539C339.754 59.371 340.514 56.243 342.015 53.46C343.455 50.8 345.599 48.595 348.208 47.089C350.894 45.547 353.932 44.737 357.023 44.737C360.114 44.737 363.152 45.547 365.838 47.089C368.397 48.642 370.479 50.878 371.855 53.548C373.279 56.327 374.013 59.412 373.992 62.539ZM357.023 48.798C353.858 48.713 350.777 49.834 348.395 51.937C346.014 54.039 344.507 56.969 344.175 60.141H369.761C369.405 56.941 367.891 53.986 365.508 51.839C363.155 49.795 360.129 48.71 357.023 48.798Z" fill="#437BA0"/>
<path d="M49.8799 61.451L86.0009 40.451C89.3319 46.942 91.0709 54.143 91.0709 61.451C91.0709 68.758 89.3319 75.959 86.0009 82.451L49.8799 61.451Z" fill="#FF97C5"/>
<path d="M47.7422 65.158L83.8402 86.158C79.9172 92.301 74.5952 97.413 68.3172 101.069C62.0382 104.725 54.9852 106.82 47.7422 107.18V65.158Z" fill="#00BB7B"/>
<path d="M5.07693 82.451C1.74543 75.959 0.00683594 68.758 0.00683594 61.451C0.00683594 54.143 1.74543 46.942 5.07693 40.451L41.175 61.451L5.07693 82.451Z" fill="#FFCF08"/>
<path d="M43.3345 107.202C36.0915 106.842 29.0381 104.747 22.76 101.091C16.4819 97.435 11.1601 92.323 7.23633 86.18L43.3345 65.158V107.202Z" fill="#FF2046"/>
<path d="M7.23633 36.722C11.1601 30.579 16.4819 25.467 22.76 21.811C29.0381 18.155 36.0915 16.06 43.3345 15.7V57.699L7.23633 36.722Z" fill="#1EEBFA"/>
<path d="M45.5386 71.396C51.0026 71.396 55.4336 66.934 55.4336 61.429C55.4336 55.924 51.0026 51.462 45.5386 51.462C40.0736 51.462 35.6436 55.924 35.6436 61.429C35.6436 66.934 40.0736 71.396 45.5386 71.396Z" fill="white"/>
<path d="M56.381 61.629C58.396 62.57 60.068 64.122 61.163 66.068C62.325 68.09 62.919 70.392 62.882 72.728C62.905 74.463 62.551 76.181 61.847 77.765C61.143 79.348 60.105 80.758 58.805 81.896C56.069 84.386 52.487 85.721 48.8 85.625H30.0459V39.586H48.448C51.922 39.467 55.314 40.671 57.946 42.96C59.15 44.005 60.11 45.305 60.757 46.767C61.405 48.229 61.724 49.817 61.692 51.417C61.687 53.444 61.195 55.439 60.26 57.233C59.378 59.02 58.039 60.537 56.381 61.629Z" fill="white"/>
<path d="M52.569 56.789C53.127 56.228 53.569 55.562 53.871 54.829C54.173 54.096 54.328 53.31 54.328 52.516C54.328 51.722 54.173 50.936 53.871 50.203C53.569 49.47 53.127 48.804 52.569 48.243C51.98 47.683 51.288 47.246 50.532 46.957C49.776 46.667 48.97 46.531 48.161 46.556H37.583V58.499H48.161C48.972 58.524 49.779 58.386 50.536 58.092C51.293 57.799 51.984 57.356 52.569 56.789Z" fill="#1EEBFA"/>
<path d="M48.3813 78.477C49.2793 78.514 50.1753 78.372 51.0183 78.06C51.8623 77.748 52.6363 77.271 53.2963 76.657C53.9093 76.048 54.3953 75.322 54.7283 74.521C55.0603 73.721 55.2313 72.862 55.2313 71.995C55.2313 71.128 55.0603 70.269 54.7283 69.469C54.3953 68.668 53.9093 67.943 53.2963 67.333C51.9613 66.094 50.1963 65.432 48.3813 65.491H37.3623V78.477H48.3813Z" fill="#00BB7B"/>
<path d="M54.2002 0.78302C61.4422 1.14602 68.4942 3.24303 74.7712 6.89902C81.0492 10.554 86.3712 15.664 90.2982 21.805L54.2002 42.804V0.78302Z" fill="#437BA0"/>
</svg>
