<svg width="508" height="311" viewBox="0 0 508 311" fill="none" xmlns="http://www.w3.org/2000/svg">
<rect width="508" height="311" fill="white"/>
<path d="M196.371 158.523C198.299 159.409 199.908 160.875 200.976 162.718C202.096 164.666 202.667 166.884 202.629 169.134C202.659 170.812 202.323 172.477 201.645 174.011C200.967 175.545 199.964 176.911 198.707 178.013C196.077 180.418 192.626 181.706 189.076 181.609H171.005V137.212H188.635C192.028 137.077 195.342 138.261 197.891 140.52C199.052 141.526 199.978 142.778 200.602 144.186C201.227 145.595 201.535 147.125 201.505 148.667C201.503 150.618 201.026 152.538 200.117 154.261C199.27 155.994 197.976 157.466 196.371 158.523ZM192.602 153.839C193.14 153.299 193.566 152.657 193.858 151.95C194.149 151.244 194.298 150.486 194.298 149.721C194.298 148.956 194.149 148.199 193.858 147.492C193.566 146.785 193.14 146.144 192.602 145.603C192.028 145.06 191.352 144.637 190.615 144.359C189.877 144.081 189.092 143.953 188.305 143.983H178.123V155.504H188.305C189.095 155.532 189.883 155.398 190.622 155.112C191.36 154.826 192.034 154.393 192.602 153.839ZM188.679 174.617C190.427 174.686 192.13 174.056 193.417 172.863C194.018 172.296 194.494 171.607 194.813 170.842C195.132 170.077 195.287 169.253 195.269 168.423C195.29 167.591 195.134 166.765 194.811 165.999C194.487 165.233 194.005 164.546 193.395 163.984C192.117 162.788 190.422 162.15 188.679 162.208H178.123V174.705L188.679 174.617Z" fill="#437BA0"/>
<path d="M231.962 178.258C228.845 180.952 224.874 182.433 220.767 182.433C216.659 182.433 212.688 180.952 209.571 178.258C208.141 176.804 207.026 175.067 206.297 173.156C205.569 171.245 205.243 169.203 205.34 167.158V147.402H212.304V166.16C212.145 168.686 212.931 171.181 214.508 173.152C216.158 174.792 218.382 175.712 220.7 175.712C223.019 175.712 225.243 174.792 226.893 173.152C228.464 171.178 229.25 168.685 229.097 166.16V147.424H236.061V167.158C236.175 169.193 235.87 171.23 235.165 173.14C234.459 175.05 233.369 176.793 231.962 178.258Z" fill="#437BA0"/>
<path d="M308.874 147.424H313.502V177.125C313.629 179.466 313.296 181.808 312.521 184.018C311.745 186.228 310.543 188.261 308.984 190.001C307.346 191.598 305.399 192.838 303.265 193.644C301.13 194.45 298.853 194.804 296.577 194.684C292.692 194.815 288.868 193.687 285.668 191.466C282.729 189.333 280.699 186.162 279.982 182.586H286.946C287.573 184.409 288.855 185.929 290.538 186.848C292.354 187.897 294.417 188.434 296.51 188.402C297.878 188.478 299.245 188.26 300.522 187.763C301.799 187.265 302.957 186.5 303.918 185.517C304.879 184.535 305.621 183.357 306.095 182.064C306.57 180.77 306.766 179.389 306.67 178.013V176.437C303.556 179.158 299.552 180.621 295.431 180.544C292.455 180.591 289.523 179.824 286.946 178.324C284.418 176.873 282.33 174.755 280.908 172.197C279.457 169.562 278.695 166.598 278.695 163.584C278.695 160.571 279.457 157.607 280.908 154.971C282.329 152.402 284.416 150.269 286.946 148.8C289.53 147.3 292.47 146.533 295.453 146.58C297.766 146.556 300.06 147.008 302.194 147.908C304.327 148.809 306.256 150.14 307.86 151.819L308.874 147.424ZM288.687 171.11C290.415 172.936 292.721 174.099 295.207 174.399C297.694 174.699 300.207 174.117 302.314 172.753C304.422 171.389 305.991 169.329 306.754 166.925C307.516 164.522 307.424 161.926 306.492 159.584C305.561 157.242 303.849 155.3 301.65 154.092C299.451 152.884 296.903 152.485 294.444 152.963C291.985 153.442 289.768 154.768 288.174 156.715C286.581 158.661 285.71 161.106 285.712 163.629C285.677 165.014 285.922 166.392 286.434 167.678C286.946 168.964 287.712 170.132 288.687 171.11Z" fill="#437BA0"/>
<path d="M268.324 136.08H275.288V182.475H269.999L269.117 178.613C267.533 180.161 265.66 181.376 263.605 182.188C261.551 182.999 259.357 183.391 257.15 183.341C254.811 183.418 252.482 183.006 250.308 182.131C248.135 181.256 246.165 179.937 244.523 178.257C241.315 174.766 239.533 170.184 239.533 165.427C239.533 160.669 241.315 156.087 244.523 152.596C247.687 149.537 251.846 147.739 256.227 147.535C260.608 147.331 264.914 148.735 268.346 151.486L268.324 136.08ZM249.768 173.418C250.795 174.473 252.029 175.302 253.391 175.853C254.752 176.403 256.213 176.662 257.679 176.615C259.141 176.615 260.588 176.325 261.938 175.761C263.289 175.198 264.515 174.372 265.549 173.331C266.582 172.29 267.402 171.054 267.961 169.694C268.521 168.334 268.809 166.877 268.809 165.404C268.809 163.932 268.521 162.475 267.961 161.114C267.402 159.754 266.582 158.519 265.549 157.478C264.515 156.437 263.289 155.611 261.938 155.048C260.588 154.484 259.141 154.194 257.679 154.194C256.213 154.146 254.752 154.406 253.391 154.956C252.029 155.506 250.795 156.335 249.768 157.391C247.757 159.568 246.639 162.431 246.639 165.404C246.639 168.378 247.757 171.241 249.768 173.418Z" fill="#437BA0"/>
<path d="M319.673 181.61V135.193H326.725V181.61H319.673Z" fill="#437BA0"/>
<path d="M349.16 175.239H353.039V181.61H347.838C346.225 181.702 344.611 181.46 343.094 180.898C341.578 180.337 340.192 179.469 339.023 178.346C337.92 177.161 337.067 175.764 336.514 174.238C335.961 172.712 335.72 171.089 335.805 169.467V153.462H329.723V152.086L341.535 139.455H342.725V147.424H352.818V153.462H342.813V168.868C342.718 169.73 342.817 170.602 343.103 171.42C343.389 172.238 343.854 172.981 344.463 173.593C345.073 174.205 345.812 174.671 346.625 174.956C347.438 175.241 348.305 175.337 349.16 175.239Z" fill="#437BA0"/>
<path d="M375.76 146.713C378.071 146.638 380.372 147.049 382.516 147.921C384.66 148.792 386.6 150.105 388.212 151.775C389.837 153.458 391.11 155.454 391.954 157.643C392.798 159.832 393.197 162.169 393.126 164.516C393.171 167.682 392.412 170.807 390.922 173.596C389.495 176.27 387.349 178.486 384.73 179.989C381.999 181.525 378.909 182.292 375.782 182.209C373.14 182.231 370.526 181.654 368.135 180.522C365.851 179.492 363.826 177.959 362.207 176.037V193.796H357.932V147.424H360.907L361.81 153.573C363.394 151.44 365.456 149.713 367.827 148.534C370.296 147.317 373.012 146.694 375.76 146.713ZM375.452 178.257C377.228 178.315 378.997 178.002 380.646 177.337C382.296 176.672 383.792 175.67 385.038 174.395C387.474 171.734 388.827 168.247 388.827 164.627C388.827 161.008 387.474 157.521 385.038 154.86C383.792 153.585 382.296 152.583 380.646 151.918C378.997 151.253 377.228 150.94 375.452 150.998C373.675 150.952 371.908 151.273 370.26 151.941C368.611 152.609 367.116 153.61 365.865 154.882C363.405 157.517 362.034 160.999 362.034 164.616C362.034 168.234 363.405 171.715 365.865 174.35C367.111 175.63 368.606 176.637 370.255 177.309C371.904 177.981 373.673 178.304 375.452 178.257Z" fill="#437BA0"/>
<path d="M397.577 140.964V135.659H402.448V140.964H397.577ZM397.886 181.609V147.424H402.139V181.609H397.886Z" fill="#437BA0"/>
<path d="M440.992 164.539C441.003 164.709 441.003 164.879 440.992 165.049C441.003 165.242 441.003 165.434 440.992 165.626C440.983 165.789 440.983 165.952 440.992 166.115H411.087C411.297 169.431 412.764 172.539 415.186 174.794C417.583 177.014 420.747 178.201 424.001 178.102C426.379 178.143 428.724 177.537 430.789 176.348C432.781 175.164 434.412 173.451 435.505 171.398H440.023C438.702 174.657 436.475 177.463 433.61 179.478C430.768 181.386 427.416 182.377 424.001 182.32C421.662 182.329 419.346 181.861 417.191 180.943C415.138 180.096 413.278 178.835 411.726 177.236C410.172 175.614 408.951 173.697 408.134 171.598C407.247 169.352 406.798 166.955 406.812 164.539C406.754 161.371 407.514 158.243 409.015 155.46C410.455 152.8 412.599 150.595 415.208 149.089C417.894 147.547 420.932 146.737 424.023 146.737C427.114 146.737 430.152 147.547 432.838 149.089C435.397 150.642 437.479 152.878 438.855 155.548C440.279 158.327 441.013 161.412 440.992 164.539ZM424.023 150.798C420.858 150.713 417.777 151.834 415.395 153.937C413.014 156.039 411.507 158.969 411.175 162.141H436.761C436.405 158.941 434.891 155.986 432.508 153.839C430.155 151.795 427.129 150.71 424.023 150.798Z" fill="#437BA0"/>
<path d="M116.88 163.451L153.001 142.451C156.332 148.942 158.071 156.143 158.071 163.451C158.071 170.758 156.332 177.959 153.001 184.451L116.88 163.451Z" fill="#FF97C5"/>
<path d="M114.742 167.158L150.84 188.158C146.917 194.301 141.595 199.413 135.317 203.069C129.038 206.725 121.985 208.82 114.742 209.18V167.158Z" fill="#00BB7B"/>
<path d="M72.0769 184.451C68.7454 177.959 67.0068 170.758 67.0068 163.451C67.0068 156.143 68.7454 148.942 72.0769 142.451L108.175 163.451L72.0769 184.451Z" fill="#FFCF08"/>
<path d="M110.335 209.202C103.092 208.842 96.0386 206.747 89.7605 203.091C83.4824 199.435 78.1606 194.323 74.2368 188.18L110.335 167.158V209.202Z" fill="#FF2046"/>
<path d="M74.2368 138.722C78.1606 132.579 83.4824 127.467 89.7605 123.811C96.0386 120.155 103.092 118.06 110.335 117.7V159.699L74.2368 138.722Z" fill="#1EEBFA"/>
<path d="M112.539 173.396C118.003 173.396 122.434 168.934 122.434 163.429C122.434 157.924 118.003 153.462 112.539 153.462C107.074 153.462 102.644 157.924 102.644 163.429C102.644 168.934 107.074 173.396 112.539 173.396Z" fill="white"/>
<path d="M123.381 163.629C125.396 164.57 127.068 166.122 128.163 168.068C129.325 170.09 129.919 172.392 129.882 174.728C129.905 176.463 129.551 178.181 128.847 179.765C128.143 181.348 127.105 182.758 125.805 183.896C123.069 186.386 119.487 187.721 115.8 187.625H97.0459V141.586H115.448C118.922 141.467 122.314 142.671 124.946 144.96C126.15 146.005 127.11 147.305 127.757 148.767C128.405 150.229 128.724 151.817 128.692 153.417C128.687 155.444 128.195 157.439 127.26 159.233C126.378 161.02 125.039 162.537 123.381 163.629Z" fill="white"/>
<path d="M119.569 158.789C120.127 158.228 120.569 157.562 120.871 156.829C121.173 156.096 121.328 155.31 121.328 154.516C121.328 153.722 121.173 152.936 120.871 152.203C120.569 151.47 120.127 150.804 119.569 150.243C118.98 149.683 118.288 149.246 117.532 148.957C116.776 148.667 115.97 148.531 115.161 148.556H104.583V160.499H115.161C115.972 160.524 116.779 160.386 117.536 160.092C118.293 159.799 118.984 159.356 119.569 158.789Z" fill="#1EEBFA"/>
<path d="M115.381 180.477C116.279 180.514 117.175 180.372 118.018 180.06C118.862 179.748 119.636 179.271 120.296 178.657C120.909 178.048 121.395 177.322 121.728 176.521C122.06 175.721 122.231 174.862 122.231 173.995C122.231 173.128 122.06 172.269 121.728 171.469C121.395 170.668 120.909 169.943 120.296 169.333C118.961 168.094 117.196 167.432 115.381 167.491H104.362V180.477H115.381Z" fill="#00BB7B"/>
<path d="M121.2 102.783C128.442 103.146 135.494 105.243 141.771 108.899C148.049 112.554 153.371 117.664 157.298 123.805L121.2 144.804V102.783Z" fill="#437BA0"/>
</svg>
